<svg version="1.0" xmlns="http://www.w3.org/2000/svg" width="600.000000pt" height="600.000000pt" viewBox="0 0 600.000000 600.000000" preserveAspectRatio="xMidYMid meet" style="width: 300px; height: auto;"> <g transform="translate(0.000000,600.000000) scale(0.100000,-0.100000)" fill="#000000" stroke="none"> <path d="M0 3226 l0 -2774 73 -6 c39 -3 115 -10 167 -15 89 -8 87 -9 -47 -4 -79 2 -154 6 -168 9 l-25 4 0 -109 c0 -78 4 -111 13 -114 10 -4 10 -6 0 -6 -10 -1 -13 -29 -13 -106 l0 -105 3000 0 3000 0 0 34 c0 19 -6 37 -12 39 -10 4 -10 6 -1 6 10 1 13 622 13 2961 l0 2960 -3000 0 -3000 0 0 -2774z m3670 2640 c0 -2 -7 -7 -16 -10 -8 -3 -12 -2 -9 4 6 10 25 14 25 6z m-2560 -200 c0 -2 -7 -7 -16 -10 -8 -3 -12 -2 -9 4 6 10 25 14 25 6z m4577 -128 c-3 -7 -5 -2 -5 12 0 14 2 19 5 13 2 -7 2 -19 0 -25z m-4930 -340 c-3 -8 -6 -5 -6 6 -1 11 2 17 5 13 3 -3 4 -12 1 -19z m126 -395 c-7 -2 -19 -2 -25 0 -7 3 -2 5 12 5 14 0 19 -2 13 -5z m502 -101 c-3 -3 -11 0 -18 7 -9 10 -8 11 6 5 10 -3 15 -9 12 -12z m525 -152 c0 -5 -8 -10 -17 -10 -15 0 -16 2 -3 10 19 12 20 12 20 0z m2907 -42 c-3 -7 -5 -2 -5 12 0 14 2 19 5 13 2 -7 2 -19 0 -25z m-3450 0 c-3 -8 -6 -5 -6 6 -1 11 2 17 5 13 3 -3 4 -12 1 -19z m1808 -103 c0 -5 -34 -13 -75 -17 -93 -8 -127 -21 -141 -51 -10 -21 -20 -25 -80 -31 -38 -3 -103 -14 -144 -23 -60 -13 -77 -14 -90 -3 -20 17 -19 25 7 50 12 11 19 22 17 25 -10 9 -164 -55 -181 -76 -10 -12 -18 -35 -18 -53 -1 -27 -7 -34 -48 -54 -26 -13 -76 -41 -112 -62 -60 -36 -85 -44 -117 -41 -16 1 -17 43 -1 59 6 6 8 15 4 19 -4 5 -37 -22 -72 -60 -66 -70 -78 -102 -54 -148 9 -16 1 -30 -47 -86 -53 -63 -98 -93 -115 -75 -4 4 -8 27 -10 52 l-3 45 -39 -64 c-27 -44 -41 -79 -44 -113 -4 -43 -1 -53 23 -78 l28 -29 -23 -56 c-27 -67 -43 -85 -76 -85 -27 0 -44 30 -44 77 0 15 -2 24 -5 21 -7 -6 -31 -101 -40 -154 -8 -52 14 -110 50 -126 25 -11 25 -13 19 -87 -7 -85 -16 -101 -51 -101 -24 0 -30 7 -37 50 -7 37 -7 37 -16 10 -12 -36 -11 -119 0 -162 12 -42 55 -81 80 -73 13 4 19 -6 28 -52 6 -32 14 -67 17 -79 8 -26 -18 -54 -49 -54 -13 0 -35 9 -50 21 -31 24 -31 24 -10 -49 23 -78 67 -122 123 -122 39 0 42 -2 66 -50 46 -91 26 -150 -50 -150 l-43 0 14 -29 c8 -16 20 -33 27 -39 6 -6 75 -16 152 -23 137 -13 141 -14 170 -45 33 -35 152 -113 203 -133 17 -8 32 -18 32 -24 0 -14 -254 -1 -350 18 -93 19 -100 19 -100 0 0 -43 148 -114 261 -124 60 -5 85 -13 125 -38 27 -17 69 -42 94 -56 33 -18 46 -32 48 -51 3 -20 -2 -27 -22 -32 -32 -8 -33 -20 -3 -27 12 -2 50 -12 83 -21 65 -17 106 -11 128 20 10 13 17 13 62 -1 28 -8 88 -21 134 -29 73 -13 120 -35 120 -57 0 -4 -15 -17 -32 -29 l-33 -22 87 6 c102 6 125 16 144 62 8 19 18 33 22 32 14 -4 118 12 185 29 63 16 68 16 84 0 14 -14 15 -20 3 -41 -15 -29 -40 -42 -40 -21 0 7 4 16 10 20 5 3 7 11 4 19 -4 10 -19 9 -77 -6 -40 -10 -84 -18 -99 -18 -15 0 -34 -7 -42 -16 -12 -12 -16 -12 -16 -2 0 7 -6 4 -12 -7 -22 -40 -52 -65 -85 -71 -18 -3 -31 -10 -28 -14 3 -4 -14 -4 -36 1 -22 5 -46 9 -52 8 -42 -5 -57 2 -57 26 0 15 8 29 21 36 17 9 19 13 8 20 -8 5 -27 9 -42 9 -16 0 -36 4 -45 9 -9 5 -35 11 -58 13 -23 3 -46 8 -51 11 -20 12 -75 18 -68 7 4 -6 3 -10 -2 -9 -4 1 -21 -3 -37 -10 -51 -21 -178 10 -221 53 -13 13 -13 15 6 21 13 4 18 12 15 21 -3 9 -1 12 4 9 16 -10 12 11 -5 25 -8 6 -18 9 -24 6 -5 -3 -12 1 -15 10 -4 9 -9 14 -13 11 -3 -4 -24 7 -46 23 -23 17 -47 30 -55 30 -7 0 -11 3 -9 8 3 4 -21 6 -54 6 -32 -1 -57 2 -54 6 3 4 -1 7 -8 7 -24 -2 -107 26 -118 39 -6 8 -16 14 -21 14 -19 0 -70 43 -79 67 -7 18 -5 28 7 40 13 13 25 14 87 5 138 -22 267 -34 267 -26 0 2 -20 17 -44 33 -25 17 -51 37 -59 45 -8 8 -18 12 -22 8 -5 -4 -5 -2 -1 5 3 7 -2 14 -14 18 -11 3 -20 14 -20 23 0 15 -2 15 -10 2 -5 -8 -10 -10 -10 -4 0 10 -127 31 -167 27 -7 0 -13 2 -13 6 0 4 -16 6 -35 6 -37 -2 -95 27 -95 45 0 6 -5 8 -12 4 -7 -4 -8 -3 -4 5 4 6 3 18 -3 25 -19 22 11 51 51 48 32 -2 36 1 45 30 17 58 -39 138 -84 121 -7 -3 -13 0 -13 6 0 6 -7 11 -15 11 -8 0 -23 9 -32 19 -9 11 -20 18 -25 15 -4 -3 -5 3 -1 12 5 13 3 15 -7 9 -8 -5 -11 -4 -7 1 3 5 -4 36 -14 68 -14 41 -17 62 -10 69 14 14 41 18 41 6 0 -5 3 -8 8 -8 4 1 9 0 12 -1 19 -7 39 -7 34 1 -3 5 0 9 5 9 17 0 13 40 -5 47 -10 3 -12 8 -5 12 19 12 0 48 -39 70 -49 27 -71 74 -71 153 -1 77 8 115 28 123 9 3 17 4 18 3 43 -65 49 -71 55 -52 12 31 11 134 -1 134 -15 0 -33 20 -51 60 -14 30 -15 44 -4 100 30 155 60 187 91 96 15 -46 29 -41 58 18 32 65 33 72 10 85 -10 6 -13 11 -8 11 6 0 4 4 -4 9 -11 7 -14 25 -12 63 4 95 6 106 14 101 9 -5 42 35 42 52 0 12 52 41 60 34 3 -4 7 -16 10 -28 5 -29 14 -41 28 -41 17 0 77 75 78 97 0 10 3 13 6 5 8 -20 23 -3 19 21 -15 71 -17 99 -7 92 6 -3 11 -1 11 4 0 6 0 13 0 16 0 11 121 115 132 115 29 -1 41 -16 28 -40 -6 -12 -9 -24 -6 -27 7 -7 66 16 87 34 8 7 20 13 26 13 6 0 16 7 23 15 7 8 16 12 21 9 5 -3 9 -1 9 5 0 5 18 18 41 27 33 15 39 22 35 40 -4 16 5 33 34 63 23 23 45 39 50 36 6 -3 10 -1 10 4 0 6 3 10 8 10 4 -1 9 0 12 1 9 3 35 9 72 16 46 8 61 -15 32 -47 -17 -19 -17 -20 32 -15 27 3 67 9 89 15 22 6 59 11 82 11 33 0 51 7 80 33 21 17 39 35 41 39 2 4 9 5 16 2 6 -2 30 0 51 5 50 12 120 9 120 -4z m-1 -49 l-28 -24 54 -10 c30 -6 76 -14 103 -18 26 -3 47 -11 47 -16 0 -6 6 -8 13 -5 8 3 20 1 28 -3 9 -6 20 -3 31 7 23 21 94 24 138 6 19 -8 40 -16 45 -17 17 -3 60 -29 67 -40 9 -14 0 -26 -30 -37 -24 -9 -25 -11 -9 -20 9 -6 21 -8 26 -4 5 3 16 -3 23 -13 23 -32 124 -92 154 -92 59 -1 156 -33 218 -73 66 -42 104 -111 74 -134 -19 -14 -50 -24 -43 -14 7 13 -101 46 -180 55 -22 3 -65 9 -95 15 -69 12 -83 0 -30 -25 22 -10 40 -22 40 -26 0 -5 5 -8 11 -8 6 0 30 -14 53 -32 47 -36 67 -55 49 -44 -7 4 -13 5 -13 2 0 -16 70 -36 145 -42 17 -1 30 -3 30 -4 0 -1 9 -3 20 -5 11 -2 45 -10 75 -19 30 -10 61 -17 68 -18 16 -2 54 -53 45 -62 -3 -3 -2 -6 4 -6 6 0 8 -11 6 -24 -5 -25 -40 -42 -75 -37 -10 1 -18 -3 -18 -9 0 -6 -4 -9 -9 -6 -9 6 -7 -51 3 -93 7 -32 18 -41 47 -45 38 -4 88 -38 101 -68 7 -14 16 -24 22 -21 5 3 6 1 2 -6 -4 -6 -4 -17 1 -24 13 -17 16 -84 4 -91 -18 -11 -71 -14 -78 -3 -4 6 -1 7 7 2 9 -5 11 -4 6 3 -5 9 -13 9 -28 1 -16 -9 -19 -17 -14 -41 3 -17 6 -43 6 -58 0 -23 8 -31 43 -48 68 -32 82 -60 83 -174 1 -74 -2 -98 -12 -98 -7 0 -18 -8 -24 -17 -10 -15 -11 -15 -6 -1 5 18 -26 52 -39 41 -4 -5 -5 -2 0 6 4 8 2 17 -6 22 -22 14 -29 11 -29 -12 0 -11 -4 -17 -10 -14 -6 4 -10 -12 -10 -42 0 -46 2 -49 38 -65 20 -10 29 -16 19 -13 -10 3 -15 1 -12 -5 3 -6 12 -10 19 -10 7 0 13 -6 14 -12 0 -7 4 -29 7 -48 4 -22 1 -56 -8 -88 -9 -29 -13 -52 -9 -52 4 0 3 -4 -3 -8 -5 -4 -15 -16 -21 -26 -15 -28 -31 -30 -39 -6 -3 11 -10 18 -15 15 -4 -3 -10 5 -13 16 -4 15 -11 20 -22 15 -9 -3 -13 -2 -10 4 13 21 -15 9 -29 -12 -21 -32 -31 -78 -17 -78 6 0 11 -7 11 -16 0 -8 4 -13 9 -10 13 8 24 -67 16 -106 -13 -61 -70 -148 -96 -148 -17 0 -39 27 -39 50 0 23 -31 41 -38 22 -2 -7 -8 -10 -13 -6 -5 3 -9 1 -9 -5 0 -5 -11 -23 -25 -39 -13 -16 -21 -33 -17 -37 4 -5 1 -5 -5 -1 -10 5 -11 -4 -7 -38 9 -62 0 -89 -44 -132 -87 -85 -151 -105 -138 -42 8 42 -15 45 -71 12 -27 -16 -50 -29 -53 -29 -15 -1 -79 -48 -75 -55 7 -12 -15 -70 -28 -70 -6 0 -8 -3 -4 -6 9 -9 -51 -56 -63 -49 -5 3 -10 1 -10 -6 0 -7 -3 -10 -6 -7 -3 4 -25 -2 -49 -13 -24 -10 -50 -16 -59 -13 -11 4 11 18 66 40 95 38 131 71 126 116 -3 26 2 33 37 52 22 12 65 36 96 54 32 18 71 32 89 32 l33 0 -6 -45 c-4 -25 -4 -45 -1 -45 3 0 32 25 64 56 72 69 87 101 72 151 -11 34 -9 38 35 95 54 68 87 82 115 48 10 -12 18 -35 18 -51 0 -32 14 -39 24 -11 3 9 19 41 36 71 40 71 40 113 -1 153 l-30 31 22 54 c35 86 93 93 126 15 l16 -37 24 75 c12 41 23 84 23 95 0 35 -36 83 -69 90 -17 4 -33 10 -35 13 -7 12 14 135 25 149 27 31 109 -2 109 -44 0 -7 4 -13 8 -13 10 0 12 51 5 129 -4 43 -11 61 -33 83 -16 16 -39 28 -54 28 -32 0 -36 7 -45 90 -5 54 -4 76 6 90 17 24 52 26 79 5 39 -29 44 -9 18 68 -20 60 -63 97 -113 97 -38 0 -39 1 -60 60 -37 100 -9 158 68 145 47 -8 50 -1 18 46 -26 39 -52 48 -230 78 -101 17 -111 21 -144 55 -46 47 -145 111 -205 133 -27 9 -47 22 -45 28 10 30 279 1 410 -44 31 -11 59 -16 62 -11 10 17 -64 86 -126 120 -43 23 -82 35 -133 40 -60 7 -81 15 -136 52 -36 24 -82 53 -102 65 -55 32 -47 63 15 63 31 0 10 14 -56 39 -73 26 -128 27 -151 2 -17 -18 -18 -18 -79 1 -34 10 -95 25 -136 32 -89 15 -111 36 -71 67 14 10 30 23 35 28 6 5 11 5 13 0 2 -5 -9 -19 -24 -33z m-2717 -118 c-3 -8 -6 -5 -6 6 -1 11 2 17 5 13 3 -3 4 -12 1 -19z m2747 -43 c109 -19 252 -66 336 -110 60 -31 62 -34 34 -35 -60 0 -210 -31 -299 -61 -49 -16 -142 -58 -206 -93 -94 -52 -127 -64 -180 -70 -81 -9 -230 -58 -292 -96 l-48 -30 -57 16 c-73 19 -210 19 -287 -1 -67 -17 -168 -66 -202 -98 -86 -78 37 110 147 227 173 183 417 314 665 355 84 14 296 12 389 -4z m308 -311 c117 -37 230 -93 321 -159 81 -59 94 -80 32 -51 -93 44 -234 54 -350 25 -38 -10 -46 -7 -126 36 -48 25 -120 54 -160 64 -41 10 -74 23 -73 27 2 25 167 81 246 83 15 1 64 -11 110 -25z m-315 -227 c62 -21 162 -72 213 -108 12 -9 27 -6 61 9 268 122 593 -58 674 -373 19 -76 19 -213 0 -307 -30 -143 -126 -290 -233 -356 -180 -111 -365 -106 -550 15 -85 55 -282 259 -348 359 -161 244 -342 420 -504 490 -56 24 -79 28 -160 28 -119 0 -182 -23 -262 -94 -70 -63 -104 -120 -125 -211 -47 -212 93 -425 322 -490 111 -31 269 -10 409 54 38 17 71 27 73 22 2 -6 11 -23 21 -39 15 -26 24 -30 70 -33 29 -1 52 0 52 3 0 3 -29 54 -65 114 l-66 108 -63 -38 c-104 -64 -307 -115 -335 -84 -18 19 -53 141 -63 220 -12 95 6 235 41 317 19 44 23 47 48 41 150 -38 338 -210 513 -468 37 -55 100 -138 139 -182 66 -76 198 -199 238 -223 17 -10 17 -12 -2 -26 -51 -40 -267 -82 -359 -70 -122 15 -266 72 -348 137 l-38 29 -82 -20 c-133 -34 -234 -24 -351 35 -75 38 -168 137 -211 226 -90 182 -88 424 6 601 46 86 141 178 231 222 216 106 410 51 648 -185 101 -101 183 -199 264 -319 67 -99 224 -262 308 -322 38 -27 95 -58 126 -70 202 -75 417 9 503 198 91 201 -5 439 -219 541 -75 36 -82 37 -183 36 -89 0 -116 -5 -174 -27 -38 -15 -91 -41 -118 -57 l-48 -30 -17 35 c-16 33 -19 35 -69 35 l-52 0 61 -102 c33 -57 62 -105 63 -107 2 -2 37 20 79 48 79 53 221 106 266 99 19 -2 29 -16 47 -60 28 -72 52 -196 52 -272 0 -68 -36 -230 -54 -245 -9 -8 -27 -7 -62 4 -141 43 -310 197 -456 415 -99 150 -274 342 -371 408 -33 22 -36 27 -21 35 29 16 127 49 174 58 78 14 227 3 307 -24z m-2597 -297 c0 -5 -4 -10 -9 -10 -6 0 -13 5 -16 10 -3 6 1 10 9 10 9 0 16 -4 16 -10z m3282 -208 c40 -81 43 -161 9 -237 -20 -46 -75 -115 -91 -115 -4 0 -1 23 6 52 18 69 17 255 -1 343 -8 38 -15 72 -15 74 0 3 14 -8 31 -25 16 -16 44 -57 61 -92z m-1687 91 c-27 -71 -33 -279 -10 -387 8 -38 13 -71 11 -73 -2 -2 -21 13 -41 34 -113 115 -116 294 -7 406 39 40 58 48 47 20z m3240 -261 c-3 -3 -11 0 -18 7 -9 10 -8 11 6 5 10 -3 15 -9 12 -12z m-150 -102 c3 -5 1 -10 -4 -10 -6 0 -11 5 -11 10 0 6 2 10 4 10 3 0 8 -4 11 -10z m-1242 -437 c-108 -189 -213 -304 -376 -415 -268 -182 -636 -247 -948 -168 -95 24 -269 90 -269 102 0 4 17 8 38 8 142 0 426 100 551 194 19 14 45 26 56 26 72 0 279 76 355 130 26 19 34 20 101 9 86 -13 186 -5 273 21 67 21 167 77 206 116 38 37 43 29 13 -23z m-3730 -58 c-3 -9 -8 -14 -10 -11 -3 3 -2 9 2 15 9 16 15 13 8 -4z m1857 -18 c65 -24 226 -34 283 -19 36 10 42 8 111 -37 82 -53 160 -85 255 -104 l64 -13 -28 -22 c-36 -29 -174 -72 -250 -78 -58 -5 -64 -3 -200 64 -77 38 -165 88 -195 112 -103 80 -162 146 -112 125 9 -5 42 -17 72 -28z m3220 -177 c0 -5 -5 -10 -11 -10 -5 0 -7 5 -4 10 3 6 8 10 11 10 2 0 4 -4 4 -10z m-767 -37 c-7 -2 -19 -2 -25 0 -7 3 -2 5 12 5 14 0 19 -2 13 -5z m-3783 -17 c0 -3 -4 -8 -10 -11 -5 -3 -10 -1 -10 4 0 6 5 11 10 11 6 0 10 -2 10 -4z m200 -226 c0 -5 -2 -10 -4 -10 -3 0 -8 5 -11 10 -3 6 -1 10 4 10 6 0 11 -4 11 -10z m3985 -420 c3 -6 -1 -7 -9 -4 -18 7 -21 14 -7 14 6 0 13 -4 16 -10z m-480 -48 c-3 -3 -11 0 -18 7 -9 10 -8 11 6 5 10 -3 15 -9 12 -12z m-42 -27 c-3 -9 -8 -14 -10 -11 -3 3 -2 9 2 15 9 16 15 13 8 -4z m-620 -42 c-7 -2 -19 -2 -25 0 -7 3 -2 5 12 5 14 0 19 -2 13 -5z m2084 -39 c-3 -3 -12 -4 -19 -1 -8 3 -5 6 6 6 11 1 17 -2 13 -5z m-490 -10 c-3 -3 -12 -4 -19 -1 -8 3 -5 6 6 6 11 1 17 -2 13 -5z m-3952 -14 c3 -6 -1 -7 -9 -4 -18 7 -21 14 -7 14 6 0 13 -4 16 -10z m3860 -10 c3 -5 1 -10 -4 -10 -6 0 -11 5 -11 10 0 6 2 10 4 10 3 0 8 -4 11 -10z m215 -150 c0 -5 -7 -7 -15 -4 -8 4 -15 8 -15 10 0 2 7 4 15 4 8 0 15 -4 15 -10z m-800 -31 c0 -6 -4 -7 -10 -4 -5 3 -10 11 -10 16 0 6 5 7 10 4 6 -3 10 -11 10 -16z m530 11 c0 -5 -4 -10 -10 -10 -5 0 -10 5 -10 10 0 6 5 10 10 10 6 0 10 -4 10 -10z m327 4 c-3 -3 -12 -4 -19 -1 -8 3 -5 6 6 6 11 1 17 -2 13 -5z m-707 -14 c0 -5 -7 -10 -16 -10 -8 0 -12 5 -9 10 3 6 10 10 16 10 5 0 9 -4 9 -10z m40 -5 c0 -8 -4 -15 -9 -15 -13 0 -22 16 -14 24 11 11 23 6 23 -9z m97 9 c-3 -3 -12 -4 -19 -1 -8 3 -5 6 6 6 11 1 17 -2 13 -5z m10 -30 c-3 -3 -12 -4 -19 -1 -8 3 -5 6 6 6 11 1 17 -2 13 -5z m-654 -11 c-7 -2 -19 -2 -25 0 -7 3 -2 5 12 5 14 0 19 -2 13 -5z m194 1 c-3 -3 -12 -4 -19 -1 -8 3 -5 6 6 6 11 1 17 -2 13 -5z m746 -31 c-7 -2 -19 -2 -25 0 -7 3 -2 5 12 5 14 0 19 -2 13 -5z m-4270 -40 c-7 -2 -19 -2 -25 0 -7 3 -2 5 12 5 14 0 19 -2 13 -5z m312 -3 c4 -6 -17 -9 -57 -8 l-63 1 55 7 c30 4 56 7 57 8 1 1 5 -2 8 -8z m135 0 c0 -5 -10 -10 -22 -9 -22 0 -22 1 -3 9 11 5 21 9 23 9 1 1 2 -3 2 -9z m-62 -7 c-10 -2 -26 -2 -35 0 -10 3 -2 5 17 5 19 0 27 -2 18 -5z m142 -3 c0 -5 -12 -10 -27 -9 l-28 1 25 8 c14 4 26 8 28 9 1 1 2 -3 2 -9z m140 0 c0 -5 -10 -10 -22 -9 -22 0 -22 1 -3 9 11 5 21 9 23 9 1 1 2 -3 2 -9z m3267 -76 c-3 -3 -12 -4 -19 -1 -8 3 -5 6 6 6 11 1 17 -2 13 -5z m120 -30 c-3 -3 -12 -4 -19 -1 -8 3 -5 6 6 6 11 1 17 -2 13 -5z m-4004 -21 c-7 -2 -19 -2 -25 0 -7 3 -2 5 12 5 14 0 19 -2 13 -5z m2457 -33 c8 -5 11 -10 5 -10 -5 0 -17 5 -25 10 -8 5 -10 10 -5 10 6 0 17 -5 25 -10z m134 -1 c-4 -7 -44 0 -44 7 0 2 11 3 24 2 14 -1 23 -5 20 -9z m-1977 -95 c-3 -3 -12 -4 -19 -1 -8 3 -5 6 6 6 11 1 17 -2 13 -5z m-294 -41 c-7 -2 -19 -2 -25 0 -7 3 -2 5 12 5 14 0 19 -2 13 -5z m100 -10 c-7 -2 -19 -2 -25 0 -7 3 -2 5 12 5 14 0 19 -2 13 -5z m3330 0 c-7 -2 -19 -2 -25 0 -7 3 -2 5 12 5 14 0 19 -2 13 -5z m370 0 c-7 -2 -19 -2 -25 0 -7 3 -2 5 12 5 14 0 19 -2 13 -5z m-443 -13 c0 -5 -13 -10 -30 -10 -16 0 -30 5 -30 10 0 6 14 10 30 10 17 0 30 -4 30 -10z m-3083 -6 c-3 -3 -12 -4 -19 -1 -8 3 -5 6 6 6 11 1 17 -2 13 -5z m56 -1 c-7 -2 -19 -2 -25 0 -7 3 -2 5 12 5 14 0 19 -2 13 -5z m2867 -4 c0 -7 -16 -8 -47 -3 -65 9 -67 14 -5 14 30 0 52 -4 52 -11z m-2915 -49 c3 -6 -1 -7 -9 -4 -18 7 -21 14 -7 14 6 0 13 -4 16 -10z m1042 4 c-3 -3 -12 -4 -19 -1 -8 3 -5 6 6 6 11 1 17 -2 13 -5z m-1247 -8 c0 -11 -19 -15 -25 -6 -3 5 1 10 9 10 9 0 16 -2 16 -4z m1327 -2 c-3 -3 -12 -4 -19 -1 -8 3 -5 6 6 6 11 1 17 -2 13 -5z m530 -10 c-3 -3 -12 -4 -19 -1 -8 3 -5 6 6 6 11 1 17 -2 13 -5z m2460 -20 c-3 -3 -12 -4 -19 -1 -8 3 -5 6 6 6 11 1 17 -2 13 -5z m-5647 -34 c0 -5 -5 -10 -11 -10 -5 0 -7 5 -4 10 3 6 8 10 11 10 2 0 4 -4 4 -10z m133 -17 c-7 -2 -19 -2 -25 0 -7 3 -2 5 12 5 14 0 19 -2 13 -5z m3890 0 c-7 -2 -19 -2 -25 0 -7 3 -2 5 12 5 14 0 19 -2 13 -5z m1282 -13 c-3 -5 -12 -10 -18 -10 -7 0 -6 4 3 10 19 12 23 12 15 0z m90 -10 c3 -5 1 -10 -4 -10 -6 0 -11 5 -11 10 0 6 2 10 4 10 3 0 8 -4 11 -10z m-4795 -20 c-19 -13 -30 -13 -30 0 0 6 10 10 23 10 18 0 19 -2 7 -10z m4362 -8 c4 -4 -21 -8 -54 -8 -36 -1 -55 1 -47 6 7 5 16 7 20 4 4 -2 10 0 13 5 7 10 56 5 68 -7z m87 -1 c9 -6 5 -8 -13 -8 -14 0 -26 3 -26 8 0 11 21 11 39 0z m46 -1 c3 -5 -1 -10 -10 -10 -9 0 -13 5 -10 10 3 6 8 10 10 10 2 0 7 -4 10 -10z m36 -17 c13 -16 12 -17 -3 -4 -17 13 -22 21 -14 21 2 0 10 -8 17 -17z m122 10 c-7 -2 -21 -2 -30 0 -10 3 -4 5 12 5 17 0 24 -2 18 -5z m85 0 c-10 -2 -28 -2 -40 0 -13 2 -5 4 17 4 22 1 32 -1 23 -4z m49 1 c-3 -3 -12 -4 -19 -1 -8 3 -5 6 6 6 11 1 17 -2 13 -5z m-4284 -31 c-13 -2 -33 -2 -45 0 -13 2 -3 4 22 4 25 0 35 -2 23 -4z m4097 3 c0 -9 -30 -14 -35 -6 -4 6 3 10 14 10 12 0 21 -2 21 -4z m-3847 -13 c-7 -2 -19 -2 -25 0 -7 3 -2 5 12 5 14 0 19 -2 13 -5z m3972 -2 c3 -6 -16 -10 -45 -9 -27 0 -50 3 -50 7 0 11 88 13 95 2z m55 5 c0 -2 -9 -6 -20 -9 -11 -3 -18 -1 -14 4 5 9 34 13 34 5z m37 -2 c-3 -3 -12 -4 -19 -1 -8 3 -5 6 6 6 11 1 17 -2 13 -5z m-5170 -10 c-3 -3 -12 -4 -19 -1 -8 3 -5 6 6 6 11 1 17 -2 13 -5z m468 -14 c55 -7 52 -8 -39 -8 -55 0 -134 6 -175 14 l-76 13 115 -6 c63 -3 142 -9 175 -13z m2798 3 c-7 -2 -19 -2 -25 0 -7 3 -2 5 12 5 14 0 19 -2 13 -5z m70 0 c-7 -2 -19 -2 -25 0 -7 3 -2 5 12 5 14 0 19 -2 13 -5z m1296 -9 c2 -2 -34 -3 -80 -3 -66 2 -76 3 -44 9 36 6 114 2 124 -6z m46 6 c3 -5 1 -10 -4 -10 -6 0 -11 5 -11 10 0 6 2 10 4 10 3 0 8 -4 11 -10z m-4592 -7 c-7 -2 -19 -2 -25 0 -7 3 -2 5 12 5 14 0 19 -2 13 -5z m62 -3 c3 -5 1 -10 -4 -10 -6 0 -11 5 -11 10 0 6 2 10 4 10 3 0 8 -4 11 -10z m562 3 c-20 -2 -52 -2 -70 0 -17 2 0 4 38 4 39 0 53 -2 32 -4z m70 1 c-3 -3 -12 -4 -19 -1 -8 3 -5 6 6 6 11 1 17 -2 13 -5z m40 0 c-3 -3 -12 -4 -19 -1 -8 3 -5 6 6 6 11 1 17 -2 13 -5z m846 -1 c-7 -2 -19 -2 -25 0 -7 3 -2 5 12 5 14 0 19 -2 13 -5z m1400 0 c-7 -2 -19 -2 -25 0 -7 3 -2 5 12 5 14 0 19 -2 13 -5z m1377 -2 c22 -7 20 -8 -16 -12 -31 -3 -40 -1 -37 8 6 14 15 15 53 4z m-4663 -7 c-3 -3 -12 -4 -19 -1 -8 3 -5 6 6 6 11 1 17 -2 13 -5z m50 -10 c-3 -3 -12 -4 -19 -1 -8 3 -5 6 6 6 11 1 17 -2 13 -5z m863 -16 c0 -4 -42 -8 -92 -7 -62 0 -86 3 -73 9 24 11 165 9 165 -2z m107 5 c-20 -2 -52 -2 -70 0 -17 2 0 4 38 4 39 0 53 -2 32 -4z m1199 -6 c4 -4 -5 -7 -20 -7 -15 0 -25 4 -22 9 7 10 31 9 42 -2z m48 1 c-3 -4 -12 -8 -20 -8 -8 0 -13 4 -10 8 3 5 12 9 20 9 8 0 13 -4 10 -9z m-1949 -8 c-3 -5 -12 -10 -18 -10 -7 0 -6 4 3 10 19 12 23 12 15 0z m4475 0 c11 -7 -3 -9 -45 -8 -56 1 -58 1 -20 8 22 4 42 8 45 8 3 1 12 -3 20 -8z m-4647 -7 c-7 -2 -19 -2 -25 0 -7 3 -2 5 12 5 14 0 19 -2 13 -5z m92 -2 c-6 -6 -25 -6 -45 -1 l-35 8 45 1 c27 1 40 -3 35 -8z m175 -1 c8 -5 11 -10 5 -10 -5 0 -17 5 -25 10 -8 5 -10 10 -5 10 6 0 17 -5 25 -10z m4248 3 c-15 -2 -42 -2 -60 0 -18 2 -6 4 27 4 33 0 48 -2 33 -4z m347 -11 c39 -12 -126 -6 -170 7 -21 5 -4 7 55 5 47 -1 99 -7 115 -12z m-3230 -15 c-34 -7 -111 -5 -190 5 -11 1 32 4 95 7 124 6 159 2 95 -12z m152 7 c-3 -3 -12 -4 -19 -1 -8 3 -5 6 6 6 11 1 17 -2 13 -5z m756 -1 c-7 -2 -19 -2 -25 0 -7 3 -2 5 12 5 14 0 19 -2 13 -5z m1684 1 c-3 -3 -12 -4 -19 -1 -8 3 -5 6 6 6 11 1 17 -2 13 -5z m-2047 -13 c0 -7 -41 -10 -122 -9 -88 1 -107 3 -68 7 111 12 190 13 190 2z m138 2 c-10 -2 -28 -2 -40 0 -13 2 -5 4 17 4 22 1 32 -1 23 -4z m89 1 c-3 -3 -12 -4 -19 -1 -8 3 -5 6 6 6 11 1 17 -2 13 -5z m53 -4 c0 -5 -2 -10 -4 -10 -3 0 -8 5 -11 10 -3 6 -1 10 4 10 6 0 11 -4 11 -10z m378 3 c-10 -2 -28 -2 -40 0 -13 2 -5 4 17 4 22 1 32 -1 23 -4z m871 -11 c48 0 71 -6 60 -16 -2 -2 -44 0 -94 4 -49 4 -80 8 -67 9 12 0 22 6 22 12 0 8 4 8 13 1 7 -6 36 -11 66 -10z m-3879 -8 c0 -2 -9 -4 -20 -4 -11 0 -20 4 -20 9 0 5 9 7 20 4 11 -3 20 -7 20 -9z m4085 0 c-12 -9 -30 -12 -43 -9 -13 3 -30 1 -37 -5 -8 -6 -21 -7 -36 -1 -20 7 -10 10 51 18 41 6 77 11 80 11 3 1 -4 -5 -15 -14z m-2055 -3 c-19 -10 -86 -23 -77 -15 6 6 61 21 82 23 6 0 3 -3 -5 -8z m-1663 -7 c-3 -3 -12 -4 -19 -1 -8 3 -5 6 6 6 11 1 17 -2 13 -5z m2791 -11 c-10 -2 -26 -2 -35 0 -10 3 -2 5 17 5 19 0 27 -2 18 -5z m-1898 -18 c0 -2 -9 -3 -19 -2 -11 0 -18 5 -15 9 4 6 34 0 34 -7z m2237 9 c-3 -3 -12 -4 -19 -1 -8 3 -5 6 6 6 11 1 17 -2 13 -5z m-2973 -22 c3 -5 -1 -9 -9 -9 -8 0 -15 4 -15 9 0 4 4 8 9 8 6 0 12 -4 15 -8z m639 1 c-7 -2 -21 -2 -30 0 -10 3 -4 5 12 5 17 0 24 -2 18 -5z m2074 1 c-3 -3 -12 -4 -19 -1 -8 3 -5 6 6 6 11 1 17 -2 13 -5z m1091 -1 c-10 -2 -26 -2 -35 0 -10 3 -2 5 17 5 19 0 27 -2 18 -5z m-3865 -10 c-7 -2 -19 -2 -25 0 -7 3 -2 5 12 5 14 0 19 -2 13 -5z m1617 3 c0 -3 -4 -8 -10 -11 -5 -3 -10 -1 -10 4 0 6 5 11 10 11 6 0 10 -2 10 -4z m-1280 -18 c0 -4 -4 -8 -9 -8 -6 0 -12 4 -15 8 -3 5 1 9 9 9 8 0 15 -4 15 -9z m1335 2 c-3 -5 -11 -10 -16 -10 -6 0 -7 5 -4 10 3 6 11 10 16 10 6 0 7 -4 4 -10z m70 0 c8 -13 -5 -13 -25 0 -13 8 -13 10 2 10 9 0 20 -4 23 -10z m608 3 c-7 -2 -21 -2 -30 0 -10 3 -4 5 12 5 17 0 24 -2 18 -5z m-2120 -10 c-7 -2 -19 -2 -25 0 -7 3 -2 5 12 5 14 0 19 -2 13 -5z m4700 0 c-7 -2 -21 -2 -30 0 -10 3 -4 5 12 5 17 0 24 -2 18 -5z m152 -11 c-3 -3 -11 0 -18 7 -9 10 -8 11 6 5 10 -3 15 -9 12 -12z m-4010 -2 c-3 -5 -12 -7 -20 -3 -21 7 -19 13 6 13 11 0 18 -4 14 -10z m85 6 c0 -3 -4 -8 -10 -11 -5 -3 -10 -1 -10 4 0 6 5 11 10 11 6 0 10 -2 10 -4z m845 -26 c3 -5 -1 -10 -9 -10 -9 0 -16 5 -16 10 0 6 4 10 9 10 6 0 13 -4 16 -10z m-1762 -17 c-7 -2 -19 -2 -25 0 -7 3 -2 5 12 5 14 0 19 -2 13 -5z m3380 0 c-13 -2 -33 -2 -45 0 -13 2 -3 4 22 4 25 0 35 -2 23 -4z m-3296 -9 c-3 -3 -12 -4 -19 -1 -8 3 -5 6 6 6 11 1 17 -2 13 -5z m-877 -14 c0 -6 -16 -8 -42 -4 -59 9 -60 14 -5 14 26 0 47 -5 47 -10z m3010 -4 c0 -11 -19 -15 -25 -6 -3 5 1 10 9 10 9 0 16 -2 16 -4z m980 -5 c-26 -14 -70 -22 -70 -12 0 13 19 19 55 20 21 0 26 -2 15 -8z m-3635 -10 c3 -6 -10 -7 -32 -4 -50 8 -55 13 -10 13 20 0 38 -4 42 -9z m-362 -8 c-7 -2 -19 -2 -25 0 -7 3 -2 5 12 5 14 0 19 -2 13 -5z m452 -11 c-3 -3 -11 0 -18 7 -9 10 -8 11 6 5 10 -3 15 -9 12 -12z m1278 11 c-7 -2 -19 -2 -25 0 -7 3 -2 5 12 5 14 0 19 -2 13 -5z m4017 -7 c0 -2 -7 -7 -16 -10 -8 -3 -12 -2 -9 4 6 10 25 14 25 6z m-5505 -16 c7 -12 -2 -12 -30 0 -19 8 -19 9 2 9 12 1 25 -3 28 -9z m448 -2 c7 -4 -26 -5 -73 -1 -47 3 -87 8 -90 10 -9 8 150 -1 163 -9z m1410 5 c-13 -2 -35 -2 -50 0 -16 2 -5 4 22 4 28 0 40 -2 28 -4z m267 -3 c13 -9 13 -10 0 -10 -8 0 -22 5 -30 10 -13 9 -13 10 0 10 8 0 22 -5 30 -10z m223 3 c-7 -2 -19 -2 -25 0 -7 3 -2 5 12 5 14 0 19 -2 13 -5z m90 0 c-7 -2 -21 -2 -30 0 -10 3 -4 5 12 5 17 0 24 -2 18 -5z m855 2 c-3 -3 -51 -9 -106 -13 -56 -4 -98 -4 -94 0 4 4 39 9 77 11 39 1 83 4 99 5 16 1 27 0 24 -3z m1285 -2 c-7 -2 -19 -2 -25 0 -7 3 -2 5 12 5 14 0 19 -2 13 -5z m-4460 -10 c-7 -2 -19 -2 -25 0 -7 3 -2 5 12 5 14 0 19 -2 13 -5z m135 -17 c10 -10 -42 -6 -58 5 -11 7 -7 9 18 5 19 -2 36 -7 40 -10z m855 7 c-7 -2 -19 -2 -25 0 -7 3 -2 5 12 5 14 0 19 -2 13 -5z m50 0 c-7 -2 -19 -2 -25 0 -7 3 -2 5 12 5 14 0 19 -2 13 -5z m408 -4 c72 0 141 -4 152 -8 12 -4 -24 -7 -79 -6 -54 2 -127 3 -161 4 -37 1 -63 5 -63 12 0 5 5 7 10 4 6 -3 69 -6 141 -6z m2256 5 c-3 -3 -12 -4 -19 -1 -8 3 -5 6 6 6 11 1 17 -2 13 -5z m233 -3 c0 -4 -11 -8 -25 -9 -14 -1 -25 2 -25 7 0 5 11 9 25 9 14 0 25 -3 25 -7z m97 3 c-3 -3 -12 -4 -19 -1 -8 3 -5 6 6 6 11 1 17 -2 13 -5z m-633 -12 c3 -5 -8 -6 -25 -4 -16 2 -29 6 -29 8 0 8 49 4 54 -4z m-3701 -9 c-7 -2 -21 -2 -30 0 -10 3 -4 5 12 5 17 0 24 -2 18 -5z m514 1 c-3 -3 -12 -4 -19 -1 -8 3 -5 6 6 6 11 1 17 -2 13 -5z m192 -10 c14 -13 -12 -13 -40 0 l-34 16 35 -6 c19 -4 37 -8 39 -10z m404 9 c-7 -2 -19 -2 -25 0 -7 3 -2 5 12 5 14 0 19 -2 13 -5z m2070 0 c-18 -2 -48 -2 -65 0 -18 2 -4 4 32 4 36 0 50 -2 33 -4z m620 0 c-13 -2 -33 -2 -45 0 -13 2 -3 4 22 4 25 0 35 -2 23 -4z m-3027 -21 c-10 -2 -22 0 -28 6 -6 6 0 7 19 4 21 -5 23 -7 9 -10z m3237 11 c-7 -2 -19 -2 -25 0 -7 3 -2 5 12 5 14 0 19 -2 13 -5z m390 0 c-7 -2 -21 -2 -30 0 -10 3 -4 5 12 5 17 0 24 -2 18 -5z m-2960 -10 c-7 -2 -19 -2 -25 0 -7 3 -2 5 12 5 14 0 19 -2 13 -5z m156 -9 c2 -2 -14 -4 -37 -4 -23 0 -42 4 -42 9 0 9 69 4 79 -5z m2586 6 c-11 -5 -27 -9 -35 -9 -9 0 -8 4 5 9 11 5 27 9 35 9 9 0 8 -4 -5 -9z m68 3 c-7 -2 -21 -2 -30 0 -10 3 -4 5 12 5 17 0 24 -2 18 -5z m65 0 c-10 -2 -26 -2 -35 0 -10 3 -2 5 17 5 19 0 27 -2 18 -5z m-2688 -13 c0 -5 -2 -10 -4 -10 -3 0 -8 5 -11 10 -3 6 -1 10 4 10 6 0 11 -4 11 -10z m87 4 c-3 -3 -12 -4 -19 -1 -8 3 -5 6 6 6 11 1 17 -2 13 -5z m101 -1 c-10 -2 -26 -2 -35 0 -10 3 -2 5 17 5 19 0 27 -2 18 -5z m2295 0 c-7 -2 -19 -2 -25 0 -7 3 -2 5 12 5 14 0 19 -2 13 -5z m-2116 -9 c-3 -3 -12 -4 -19 -1 -8 3 -5 6 6 6 11 1 17 -2 13 -5z"></path> <path d="M2956 4193 c-1 -1 -30 -3 -63 -5 -36 -1 -59 -6 -56 -12 3 -5 2 -6 -4 -3 -22 14 -307 -70 -324 -95 -3 -6 -8 -9 -10 -8 -14 5 -150 -74 -157 -92 -2 -5 -10 -8 -18 -8 -8 0 -14 -7 -14 -16 0 -8 -4 -13 -8 -10 -4 2 -30 -15 -57 -40 -28 -24 -53 -44 -56 -44 -3 0 -12 -11 -19 -25 -7 -13 -17 -22 -22 -19 -4 3 -8 -1 -8 -9 0 -7 -11 -24 -25 -37 -34 -32 -69 -91 -49 -83 8 3 14 8 14 12 0 4 6 8 13 8 6 1 37 11 67 23 70 27 266 33 344 11 38 -11 51 -12 54 -3 2 7 9 12 15 12 7 0 37 12 67 27 30 14 62 30 71 34 34 16 146 41 176 40 31 -1 127 40 235 102 26 15 54 27 62 27 9 0 16 4 16 8 0 5 6 9 13 10 6 1 41 11 77 22 115 37 126 40 168 42 23 1 42 4 42 7 0 13 -184 88 -203 83 -4 -1 -16 2 -26 8 -21 10 -112 22 -178 23 -23 0 -41 3 -39 6 4 5 -93 9 -98 4z"></path> <path d="M3318 3858 c-17 -17 -20 -18 -15 -4 6 14 3 16 -16 10 -12 -4 -24 -11 -25 -15 -2 -5 -8 -7 -13 -4 -5 4 -17 1 -26 -4 -16 -9 -15 -10 8 -11 14 0 52 -14 83 -30 31 -17 58 -30 61 -30 17 1 84 -38 78 -45 -5 -4 12 -5 37 -1 61 10 231 22 236 17 9 -9 54 -9 49 0 -4 5 -10 9 -15 9 -5 0 -32 14 -61 30 -28 17 -54 28 -57 25 -3 -3 -12 1 -21 8 -9 7 -43 21 -76 31 -33 10 -70 22 -83 27 -13 5 -45 9 -72 9 -38 0 -55 -5 -72 -22z"></path> <path d="M2861 3648 c-18 -5 -40 -16 -48 -23 -7 -8 -20 -12 -27 -9 -33 13 -23 -18 13 -44 22 -16 37 -32 34 -36 -3 -3 -2 -6 4 -6 11 0 113 -95 113 -105 0 -4 27 -37 60 -73 33 -37 60 -72 60 -78 0 -6 11 -19 24 -30 14 -10 23 -22 20 -26 -3 -4 2 -11 10 -14 8 -3 18 -16 22 -27 6 -19 46 -80 64 -97 3 -3 17 -21 32 -41 15 -20 44 -52 65 -71 21 -20 56 -52 78 -72 21 -20 43 -36 48 -36 5 0 27 -14 48 -31 21 -17 39 -28 39 -25 0 3 16 -2 35 -10 44 -18 51 -18 59 4 3 9 11 31 17 47 28 83 14 351 -22 416 -7 13 -14 29 -14 34 -1 17 -97 10 -140 -10 -22 -10 -44 -18 -50 -19 -5 -1 -42 -22 -81 -48 -40 -27 -75 -48 -80 -48 -14 0 -64 53 -64 69 0 8 -6 22 -14 30 -19 22 -66 113 -66 128 0 16 14 24 56 29 39 5 94 -19 94 -41 0 -17 16 -20 25 -5 3 6 15 10 25 10 10 0 20 4 22 10 2 5 27 18 55 28 29 10 50 22 46 26 -4 4 -1 5 7 2 8 -3 33 0 55 8 50 17 178 13 242 -9 85 -29 188 -102 229 -162 16 -22 32 -39 35 -37 6 3 20 -32 16 -40 -1 -1 3 -9 9 -17 34 -44 43 -245 14 -314 -7 -16 -13 -33 -12 -37 1 -5 -3 -8 -10 -8 -6 0 -9 -3 -5 -6 3 -3 -3 -15 -14 -27 -21 -23 -26 -42 -7 -31 7 5 8 3 4 -5 -5 -7 -11 -10 -14 -7 -3 3 -26 -14 -52 -38 -46 -43 -123 -86 -154 -86 -8 0 -18 -4 -21 -10 -6 -9 -179 -8 -215 2 -46 12 -123 44 -138 58 -10 8 -43 32 -75 54 -31 21 -57 43 -57 48 0 5 -4 7 -9 3 -5 -3 -12 4 -16 14 -3 11 -22 30 -41 41 -32 20 -49 40 -21 24 6 -3 -1 7 -18 23 -20 21 -33 27 -38 19 -6 -7 -7 -4 -3 7 4 12 -6 29 -29 52 -19 19 -32 35 -29 35 3 0 -8 18 -25 39 -17 21 -31 42 -31 46 0 5 -16 27 -35 51 -19 23 -35 47 -35 53 0 12 -40 37 -53 33 -5 -1 -6 2 -3 7 4 5 -1 16 -9 24 -8 9 -15 18 -15 22 0 3 -31 37 -70 75 -63 63 -79 75 -102 71 -4 0 -5 6 -2 13 3 9 -4 20 -17 27 -13 6 -28 16 -33 21 -13 11 -79 52 -86 53 -3 0 -32 11 -65 24 -53 20 -72 22 -153 17 -95 -5 -147 -22 -217 -70 -43 -30 -145 -132 -145 -146 0 -6 -5 -8 -12 -4 -7 5 -9 2 -5 -9 3 -8 -1 -21 -9 -28 -8 -7 -12 -19 -9 -28 3 -8 3 -12 -1 -8 -12 11 -55 -126 -52 -165 2 -20 0 -34 -5 -31 -13 8 1 -169 19 -227 9 -30 16 -63 17 -72 1 -9 4 -15 8 -12 4 2 10 -8 14 -24 3 -15 16 -35 28 -45 12 -10 16 -16 9 -12 -8 4 -3 -9 9 -28 13 -19 27 -33 31 -31 5 3 8 1 8 -4 0 -13 61 -72 75 -72 7 0 20 -9 30 -20 10 -11 27 -20 37 -20 12 0 16 -4 12 -12 -4 -6 -3 -8 3 -5 5 3 29 -1 54 -9 58 -21 181 -20 239 2 59 21 105 19 132 -6 12 -11 25 -20 29 -20 4 0 21 -12 38 -26 17 -14 36 -22 42 -18 8 5 9 3 4 -6 -6 -10 -4 -12 8 -7 9 3 17 1 19 -4 2 -6 10 -11 18 -13 8 -2 28 -8 44 -15 16 -6 36 -9 43 -7 8 3 12 2 9 -3 -3 -5 3 -11 14 -14 35 -9 274 -1 300 10 14 6 44 18 66 28 l41 17 -46 41 c-25 23 -48 45 -51 48 -3 4 -23 18 -44 33 -21 14 -35 26 -30 26 5 0 1 5 -8 11 -10 5 -18 16 -18 24 0 8 -6 18 -13 22 -7 4 -35 35 -62 68 -28 33 -56 64 -62 68 -7 4 -13 15 -13 22 0 8 -3 15 -8 15 -4 0 -13 14 -20 30 -9 18 -18 27 -25 23 -7 -4 -7 0 1 9 11 14 10 18 -7 28 -12 6 -21 16 -21 23 0 16 -36 47 -45 39 -4 -4 -5 0 -3 8 2 8 -2 14 -9 13 -7 -2 -10 3 -7 11 3 9 -3 17 -16 21 -12 4 -19 9 -17 11 5 5 -36 54 -100 121 -18 18 -33 30 -33 26 0 -5 -4 -3 -8 2 -18 25 -161 118 -148 96 5 -8 -2 -6 -18 4 -28 19 -59 14 -50 -8 3 -8 -2 -21 -10 -30 -8 -8 -13 -17 -10 -20 3 -3 1 -14 -4 -24 -6 -10 -15 -51 -20 -91 -13 -91 0 -194 34 -285 l27 -69 56 7 c31 4 81 16 111 26 30 11 61 21 68 21 6 1 12 5 12 10 0 5 5 6 10 3 6 -3 10 -3 10 2 0 4 10 13 23 19 12 6 37 19 56 30 25 14 35 16 38 6 3 -6 9 -10 14 -6 5 3 9 2 8 -3 -4 -12 23 -63 33 -63 4 0 8 -7 8 -15 0 -8 5 -15 10 -15 6 0 10 -6 10 -14 0 -8 7 -21 15 -30 27 -26 48 -87 35 -100 -16 -16 -118 -14 -125 2 -3 7 -10 10 -16 6 -7 -4 -9 -3 -6 2 9 15 -7 35 -29 36 -10 1 -35 -6 -54 -14 -33 -15 -109 -41 -161 -55 -44 -12 -190 -15 -220 -4 -17 6 -29 6 -29 1 0 -5 -7 -7 -15 -4 -8 4 -12 10 -9 15 3 5 -4 9 -15 9 -11 0 -23 5 -26 11 -4 6 -14 8 -23 4 -9 -3 -13 -3 -10 1 4 3 -15 18 -42 32 -28 14 -50 30 -50 34 0 5 -4 6 -10 3 -5 -3 -10 -1 -10 4 0 14 -36 51 -44 45 -3 -2 -4 -1 -1 2 2 4 -8 23 -24 43 -16 20 -32 51 -36 69 -3 17 -10 32 -15 32 -5 0 -9 8 -10 18 0 9 -3 56 -6 103 -4 58 -2 94 6 109 9 18 9 21 0 15 -9 -5 -8 1 2 21 9 16 22 43 29 59 8 17 18 33 24 37 5 4 6 8 1 8 -18 0 120 121 151 132 18 7 33 15 33 18 0 13 115 33 179 32 77 -2 149 -22 216 -62 28 -17 62 -35 77 -41 15 -6 30 -19 33 -29 3 -11 15 -22 26 -25 10 -4 19 -10 19 -15 0 -5 16 -18 35 -30 19 -12 33 -25 30 -30 -3 -5 4 -11 15 -15 11 -3 20 -11 20 -17 0 -6 18 -28 40 -49 22 -22 40 -42 40 -47 0 -4 12 -22 28 -39 62 -71 94 -115 107 -147 17 -40 57 -86 74 -86 7 0 9 -4 6 -10 -3 -5 -1 -10 4 -10 6 0 11 -5 11 -11 0 -13 55 -69 68 -69 5 0 18 -12 27 -27 19 -30 65 -76 65 -66 0 3 12 -6 26 -20 15 -15 30 -24 35 -21 5 3 9 -1 9 -8 0 -14 53 -48 76 -48 8 0 14 -4 14 -9 0 -5 21 -14 48 -21 59 -16 162 -28 162 -19 0 4 9 5 20 2 21 -6 125 22 146 38 6 5 14 6 17 2 4 -3 7 -1 7 6 0 7 4 10 9 6 5 -3 17 5 26 17 8 13 19 22 23 21 11 -3 55 38 93 87 19 25 38 48 42 51 5 3 8 9 8 12 0 4 8 27 19 53 43 100 65 277 46 374 -3 19 -9 50 -12 68 -4 17 -10 32 -13 32 -4 0 -8 6 -8 13 0 21 -35 89 -50 94 -7 3 -10 9 -7 14 3 5 -2 12 -10 15 -9 3 -13 10 -10 15 3 5 0 9 -5 9 -13 0 -51 36 -45 42 2 3 -7 11 -21 18 -14 7 -25 17 -25 22 0 5 -4 6 -10 3 -5 -3 -10 -1 -10 5 0 5 -15 17 -32 24 -18 8 -49 21 -68 29 -102 44 -191 42 -317 -8 -45 -18 -67 -23 -76 -15 -26 22 -117 78 -117 73 0 -3 -9 2 -19 11 -11 10 -24 15 -30 12 -5 -4 -12 -2 -16 4 -9 15 -27 12 -20 -2 4 -7 1 -6 -7 2 -7 9 -32 21 -54 28 -49 14 -234 14 -283 0z"></path> <path d="M3848 3051 c2 -68 -1 -134 -7 -151 -13 -39 -8 -38 16 3 10 17 20 55 22 82 1 28 4 57 7 66 2 9 -6 40 -18 69 l-23 52 3 -121z"></path> <path d="M2134 3163 c3 -7 1 -13 -5 -13 -11 0 -29 -43 -35 -84 -2 -16 -5 -31 -8 -33 -2 -3 0 -19 6 -36 5 -18 10 -41 12 -52 2 -16 33 -75 40 -75 0 0 0 61 -1 136 -2 75 2 144 7 153 7 13 5 18 -6 18 -8 0 -13 -6 -10 -14z"></path> <path d="M3937 2372 c-22 -10 -35 -21 -30 -26 4 -5 3 -6 -4 -3 -6 4 -24 2 -40 -5 -15 -6 -32 -10 -37 -9 -4 1 -15 -4 -23 -11 -20 -16 -285 -21 -294 -6 -5 7 -19 3 -40 -10 -58 -35 -152 -80 -204 -98 -66 -22 -167 -43 -182 -37 -6 2 -16 -5 -22 -16 -6 -11 -28 -28 -49 -37 -20 -10 -49 -26 -64 -36 -16 -11 -28 -17 -28 -13 0 3 -15 -2 -32 -12 -18 -9 -36 -16 -40 -15 -5 1 -8 -3 -8 -9 0 -5 -4 -7 -10 -4 -5 3 -10 1 -10 -6 0 -7 -3 -10 -6 -6 -4 3 -20 -1 -36 -9 -16 -8 -34 -12 -40 -8 -7 4 -8 3 -4 -4 5 -8 0 -12 -12 -12 -38 0 -162 -32 -157 -41 3 -5 25 -13 48 -19 23 -6 51 -15 62 -19 11 -5 36 -13 55 -19 94 -30 318 -43 388 -23 19 6 32 6 32 1 0 -6 10 -6 24 0 13 5 27 6 30 3 3 -3 13 0 22 8 9 7 26 14 37 14 66 4 78 6 73 14 -3 5 11 11 32 15 20 3 54 14 74 25 21 10 35 14 31 7 -3 -6 2 -4 13 5 22 18 76 43 87 41 4 -1 7 2 7 8 0 5 7 10 15 10 8 0 15 7 15 16 0 8 5 12 10 9 6 -3 10 2 10 12 0 12 3 14 8 6 5 -9 20 -2 52 22 84 64 170 150 165 164 -5 11 -3 12 10 1 12 -10 15 -10 15 3 0 9 9 22 20 30 11 8 17 17 13 20 -3 4 -1 7 5 7 7 0 12 7 12 16 0 8 3 13 8 11 4 -3 15 10 24 29 10 19 17 34 15 33 -1 0 -19 -8 -40 -17z"></path> <path d="M2176 2333 c-9 -9 46 -43 57 -36 6 3 7 2 4 -3 -3 -5 11 -21 31 -34 20 -14 40 -29 44 -35 5 -6 8 -4 8 4 0 11 6 8 20 -7 11 -12 33 -25 48 -28 15 -4 34 -12 42 -19 8 -7 30 -20 48 -29 24 -12 32 -13 32 -4 0 9 3 10 8 2 12 -18 47 -33 68 -29 10 2 36 6 57 9 20 2 43 8 50 14 6 5 20 8 30 7 9 -2 17 1 17 6 0 5 3 8 8 8 26 -4 53 3 50 13 -5 15 -107 50 -122 41 -6 -3 -8 -3 -4 2 4 4 -27 25 -70 46 -42 22 -80 46 -84 54 -6 10 -20 12 -51 9 -82 -10 -242 -7 -263 4 -12 6 -24 8 -28 5z"></path> </g> </svg>